    <svg
      width="559"
      height="145"
      viewBox="0 0 559 145"
      fill="none"
      xmlns="http://www.w3.org/2000/svg"
    >
      <g clip-path="url(#clip0_12364_11446)">
        <path
          d="M57.739 145C44.8261 144.985 34.4326 134.595 34.4747 121.747C34.5169 108.962 44.921 98.6035 57.739 98.5773C70.636 98.5563 81.135 109.056 81.077 121.931C81.019 134.716 70.5991 145.016 57.739 145Z"
          fill="#F5FDFF"
        />
        <path
          d="M180.253 126.621C177.091 127.672 161.806 130.298 152.319 117.166C141.71 102.485 131.316 62.8591 129.129 47.8312C128.191 41.402 118.588 1.60773 81.1666 0.0319257C50.5974 -1.01861 41.7534 26.8258 41.7534 26.8258C41.7534 26.8258 32.0977 58.1055 21.6093 66.7408C9.48701 76.7209 0 71.9935 0 71.9935C0 71.9935 26.8799 97.2063 50.5974 85.1252C74.3149 73.0441 81.6937 48.3565 81.6937 48.3565C81.6937 48.3565 89.2147 87.4364 95.2021 100.988C97.7636 106.782 107.519 139.753 133.872 143.43C160.225 147.107 180.253 126.621 180.253 126.621Z"
          fill="#F5FDFF"
        />
        <rect
          x="160.113"
          y="20.9482"
          width="23.3075"
          height="101.336"
          rx="11.6538"
          fill="#F5FDFF"
        />
        <rect
          x="160.113"
          y="20.9482"
          width="23.3075"
          height="101.336"
          rx="11.6538"
          fill="#F5FDFF"
        />
        <path
          d="M273.482 31.044C273.482 25.4683 278.019 20.9482 283.616 20.9482H286.656C292.253 20.9482 296.79 25.4683 296.79 31.044V51.614C296.79 57.1898 299.174 59.0596 304.77 59.0596H317.564C323.161 59.0596 325.671 57.1898 325.671 51.614V31.044C325.671 25.4683 330.208 20.9482 335.805 20.9482H338.845C344.441 20.9482 348.978 25.4683 348.978 31.044V112.188C348.978 117.764 344.441 122.284 338.845 122.284H335.805C330.208 122.284 325.671 117.764 325.671 112.188V88.5897C325.671 83.014 323.161 81.2703 317.564 81.2703H304.77C299.174 81.2703 296.79 83.014 296.79 88.5897V112.188C296.79 117.764 292.253 122.284 286.656 122.284H283.616C278.019 122.284 273.482 117.764 273.482 112.188V31.044Z"
          fill="#F5FDFF"
        />
        <path
          d="M273.482 31.044C273.482 25.4683 278.019 20.9482 283.616 20.9482H286.656C292.253 20.9482 296.79 25.4683 296.79 31.044V51.614C296.79 57.1898 299.174 59.0596 304.77 59.0596H317.564C323.161 59.0596 325.671 57.1898 325.671 51.614V31.044C325.671 25.4683 330.208 20.9482 335.805 20.9482H338.845C344.441 20.9482 348.978 25.4683 348.978 31.044V112.188C348.978 117.764 344.441 122.284 338.845 122.284H335.805C330.208 122.284 325.671 117.764 325.671 112.188V88.5897C325.671 83.014 323.161 81.2703 317.564 81.2703H304.77C299.174 81.2703 296.79 83.014 296.79 88.5897V112.188C296.79 117.764 292.253 122.284 286.656 122.284H283.616C278.019 122.284 273.482 117.764 273.482 112.188V31.044Z"
          fill="#F5FDFF"
        />
        <path
          d="M203.686 20.9482C198.09 20.9482 193.553 25.4683 193.553 31.044V33.0631C193.553 38.6388 198.09 43.1589 203.686 43.1589H209.577C215.173 43.1589 216.734 46.0383 216.734 51.614V112.188C216.734 117.764 221.271 122.284 226.867 122.284H229.907C235.504 122.284 240.041 117.764 240.041 112.188V51.614C240.041 46.0383 241.538 43.1589 247.135 43.1589H253.088C258.685 43.1589 263.222 38.6388 263.222 33.0631V31.044C263.222 25.4683 258.685 20.9482 253.088 20.9482H203.686Z"
          fill="#F5FDFF"
        />
        <path
          d="M203.686 20.9482C198.09 20.9482 193.553 25.4683 193.553 31.044V33.0631C193.553 38.6388 198.09 43.1589 203.686 43.1589H209.577C215.173 43.1589 216.734 46.0383 216.734 51.614V112.188C216.734 117.764 221.271 122.284 226.867 122.284H229.907C235.504 122.284 240.041 117.764 240.041 112.188V51.614C240.041 46.0383 241.538 43.1589 247.135 43.1589H253.088C258.685 43.1589 263.222 38.6388 263.222 33.0631V31.044C263.222 25.4683 258.685 20.9482 253.088 20.9482H203.686Z"
          fill="#F5FDFF"
        />
        <path
          d="M364.939 30.792C364.939 25.2163 369.476 20.6963 375.073 20.6963H378.113C383.71 20.6963 388.247 25.2163 388.247 30.792V88.7794C388.247 98.8751 394.264 101.613 402.502 101.613C411.491 101.613 417.128 98.8751 417.128 88.7794V30.792C417.128 25.2163 421.665 20.6963 427.262 20.6963H430.302C435.898 20.6963 440.435 25.2163 440.435 30.792V93.5118C440.435 103.481 432.265 124.304 401.864 124.304C371.463 124.304 364.939 101.02 364.939 93.5118V30.792Z"
          fill="#F5FDFF"
        />
        <path
          d="M364.939 30.792C364.939 25.2163 369.476 20.6963 375.073 20.6963H378.113C383.71 20.6963 388.247 25.2163 388.247 30.792V88.7794C388.247 98.8751 394.264 101.613 402.502 101.613C411.491 101.613 417.128 98.8751 417.128 88.7794V30.792C417.128 25.2163 421.665 20.6963 427.262 20.6963H430.302C435.898 20.6963 440.435 25.2163 440.435 30.792V93.5118C440.435 103.481 432.265 124.304 401.864 124.304C371.463 124.304 364.939 101.02 364.939 93.5118V30.792Z"
          fill="#F5FDFF"
        />
        <path
          d="M538.958 118.78C538.748 118.204 538.412 117.644 538.028 117.157C535.58 114.017 533.106 110.903 530.642 107.784C525.893 101.771 521.128 95.7678 516.4 89.7336C514.078 86.7714 514.514 83.3435 517.404 80.9675C518.376 80.1668 519.332 79.3451 520.22 78.4607C525.515 73.1696 528.903 66.8841 529.802 59.4264C530.863 50.6184 528.788 42.5117 523.54 35.3627C516.884 26.2931 507.801 21.3736 496.516 21.0857C486.278 20.8241 476.034 21.0125 465.79 21.0334C463.042 21.0386 460.736 22.1429 458.887 24.1526C457.095 26.1047 456.391 28.4336 456.397 31.0556C456.423 44.4376 456.407 57.8249 456.407 71.207V110.228C456.407 110.982 456.397 111.735 456.418 112.484C456.596 117.654 460.604 121.616 465.8 121.757C467.224 121.794 468.653 121.778 470.081 121.757C471.931 121.731 473.649 121.224 475.177 120.182C478.014 118.246 479.469 115.545 479.474 112.112C479.49 106.549 479.474 100.986 479.485 95.4224C479.485 94.7997 479.506 94.1612 479.616 93.5488C480.168 90.4715 482.989 88.3938 486.115 88.7131C487.995 88.9015 489.377 89.8697 490.522 91.3141C497.966 100.698 505.442 110.061 512.87 119.455C514.084 120.988 515.56 121.773 517.509 121.768C523.639 121.752 529.765 121.773 535.896 121.747C536.51 121.747 537.162 121.637 537.734 121.417C538.916 120.972 539.384 119.952 538.958 118.78ZM503.939 64.3302C501.68 67.0673 498.781 68.5275 495.182 68.5013C493.674 68.4908 492.161 68.5013 490.654 68.5013C489.015 68.5013 487.381 68.5065 485.747 68.5013C482.106 68.4856 479.564 66.0258 479.501 62.3886C479.453 59.6724 479.49 56.9562 479.49 54.24C479.49 52.4868 479.48 50.7283 479.49 48.9751C479.527 45.1128 482.012 42.6111 485.873 42.585C488.894 42.564 491.914 42.5745 494.935 42.5797C499.668 42.5902 503.099 44.7987 505.326 48.8704C507.984 53.7271 507.391 60.1382 503.939 64.3302Z"
          fill="#F5FDFF"
        />
        <path
          d="M538.958 118.78C538.748 118.204 538.412 117.644 538.028 117.157C535.58 114.017 533.106 110.903 530.642 107.784C525.893 101.771 521.128 95.7678 516.4 89.7336C514.078 86.7714 514.514 83.3435 517.404 80.9675C518.376 80.1668 519.332 79.3451 520.22 78.4607C525.515 73.1696 528.903 66.8841 529.802 59.4264C530.863 50.6184 528.788 42.5117 523.54 35.3627C516.884 26.2931 507.801 21.3736 496.516 21.0857C486.278 20.8241 476.034 21.0125 465.79 21.0334C463.042 21.0386 460.736 22.1429 458.887 24.1526C457.095 26.1047 456.391 28.4336 456.397 31.0556C456.423 44.4376 456.407 57.8249 456.407 71.207V110.228C456.407 110.982 456.397 111.735 456.418 112.484C456.596 117.654 460.604 121.616 465.8 121.757C467.224 121.794 468.653 121.778 470.081 121.757C471.931 121.731 473.649 121.224 475.177 120.182C478.014 118.246 479.469 115.545 479.474 112.112C479.49 106.549 479.474 100.986 479.485 95.4224C479.485 94.7997 479.506 94.1612 479.616 93.5488C480.168 90.4715 482.989 88.3938 486.115 88.7131C487.995 88.9015 489.377 89.8697 490.522 91.3141C497.966 100.698 505.442 110.061 512.87 119.455C514.084 120.988 515.56 121.773 517.509 121.768C523.639 121.752 529.765 121.773 535.896 121.747C536.51 121.747 537.162 121.637 537.734 121.417C538.916 120.972 539.384 119.952 538.958 118.78ZM503.939 64.3302C501.68 67.0673 498.781 68.5275 495.182 68.5013C493.674 68.4908 492.161 68.5013 490.654 68.5013C489.015 68.5013 487.381 68.5065 485.747 68.5013C482.106 68.4856 479.564 66.0258 479.501 62.3886C479.453 59.6724 479.49 56.9562 479.49 54.24C479.49 52.4868 479.48 50.7283 479.49 48.9751C479.527 45.1128 482.012 42.6111 485.873 42.585C488.894 42.564 491.914 42.5745 494.935 42.5797C499.668 42.5902 503.099 44.7987 505.326 48.8704C507.984 53.7271 507.391 60.1382 503.939 64.3302Z"
          fill="#F5FDFF"
        />
      </g>
      <defs>
        <clipPath id="clip0_12364_11446">
          <rect width="559" height="145" fill="white" />
        </clipPath>
      </defs>
    </svg>
