<svg width="559" height="145" viewBox="0 0 559 145" fill="none" xmlns="http://www.w3.org/2000/svg">
<g clip-path="url(#clip0_12631_6860)">
<path d="M57.4445 98.3675C44.642 98.3938 34.2506 108.758 34.2084 121.551C34.1663 134.407 44.5525 144.803 57.4445 144.819C70.2838 144.835 80.6963 134.523 80.7542 121.735C80.8121 108.858 70.3259 98.3465 57.4445 98.3675ZM183.206 32.348C183.206 32.0958 183.206 31.8435 183.206 31.5912C183.074 26.0883 178.926 22.0202 173.414 21.9992C172.109 21.9939 170.808 21.9834 169.503 21.9992C166.797 22.036 164.507 23.0503 162.654 25.0055C160.833 26.9292 160.043 29.2418 160.048 31.8908C160.069 45.4615 160.059 59.027 160.059 72.5978C160.059 86.2106 160.048 99.8181 160.064 113.431C160.069 118.96 164.16 123.076 169.682 123.165C171.072 123.186 172.461 123.217 173.846 123.154C177.341 122.997 180.026 121.415 181.853 118.435C182.895 116.732 183.216 114.85 183.216 112.879C183.2 86.0371 183.206 59.19 183.206 32.348ZM262.826 31.8592C262.8 26.1408 258.662 22.0097 252.945 21.9939C248.781 21.9834 244.617 21.9939 240.453 21.9939C227.956 21.9939 215.464 21.9834 202.967 21.9992C197.661 22.0044 193.518 26.062 193.365 31.3494C193.334 32.4427 193.365 33.5359 193.355 34.6239C193.302 40.1899 198.108 44.3841 203.12 44.2159C205.515 44.1318 207.916 44.1738 210.311 44.2106C213.885 44.2632 216.407 46.7808 216.501 50.3338C216.512 50.7542 216.507 51.1747 216.507 51.5952C216.507 71.8409 216.507 92.0867 216.507 112.332C216.507 113.005 216.507 113.678 216.565 114.345C216.996 119.275 220.865 122.97 225.808 123.149C227.319 123.207 228.841 123.217 230.351 123.149C233.689 122.997 236.3 121.515 238.142 118.718C239.264 117.015 239.669 115.118 239.664 113.089C239.648 102.798 239.658 92.5072 239.658 82.2161V60.6669C239.658 57.3083 239.664 53.9446 239.658 50.586C239.658 49.209 239.948 47.916 240.769 46.786C242.022 45.0621 243.738 44.2264 245.849 44.2106C248.292 44.1896 250.729 44.1423 253.166 44.2159C257.72 44.3525 262.758 40.6208 262.826 34.6291C262.831 33.7093 262.826 32.7843 262.826 31.8592ZM439.476 63.4472C439.476 53.1509 439.476 42.8599 439.476 32.5635C439.476 31.8908 439.46 31.218 439.392 30.5505C438.897 25.7414 434.87 22.0622 430.037 21.9992C428.605 21.9781 427.173 21.9519 425.747 22.0044C421.978 22.1358 419.193 23.8965 417.387 27.192C416.514 28.7845 416.314 30.519 416.314 32.3113C416.324 51.3429 416.324 70.3745 416.314 89.4062C416.314 90.5362 416.256 91.6767 416.103 92.7962C415.466 97.4162 412.955 100.522 408.422 101.794C404.037 103.024 399.594 103.024 395.209 101.789C391.188 100.654 388.598 98.0364 387.771 93.8842C387.497 92.4914 387.355 91.0513 387.355 89.6374C387.329 70.7319 387.339 51.8212 387.334 32.9157C387.334 32.2429 387.345 31.5702 387.303 30.8974C387.013 26.0252 382.902 22.0833 378.006 21.9939C376.574 21.9676 375.142 21.9729 373.716 21.9939C370.563 22.0412 368.031 23.3342 366.114 25.8202C364.667 27.6966 364.156 29.862 364.156 32.2009C364.167 52.0735 364.151 71.946 364.177 91.8186C364.177 93.6162 364.33 95.4294 364.572 97.2165C366.009 107.713 371.489 115.433 380.817 120.416C386.481 123.443 392.609 124.805 398.994 125.099C406.838 125.467 414.455 124.463 421.609 121.031C429.406 117.289 434.928 111.465 437.733 103.208C439.018 99.4292 439.476 95.5188 439.476 91.5453C439.476 82.1846 439.476 72.8133 439.476 63.4472ZM348.243 72.5873C348.243 59.3529 348.243 46.1238 348.243 32.8947C348.243 32.264 348.248 31.6332 348.216 31.0025C348 27.0238 345.326 23.6075 341.504 22.4249C339.583 21.8257 333.803 21.8205 331.876 22.4144C327.791 23.6758 325.149 27.2814 325.106 31.7278C325.075 35.4648 325.101 39.207 325.101 42.944C325.101 46.5127 325.096 50.0867 325.101 53.6555C325.101 55.3637 324.622 56.8826 323.422 58.1388C322.116 59.5001 320.479 60.0309 318.637 60.0309C316.242 60.0309 313.841 60.0309 311.446 60.0309C308.414 60.0309 305.387 60.0782 302.36 60.0099C298.586 59.9258 296.18 57.4292 296.148 53.6713C296.133 51.7844 296.143 49.8923 296.143 48.0001C296.143 42.5392 296.169 37.0784 296.132 31.6175C296.096 26.2039 291.895 22.0307 286.515 21.9939C285.209 21.9834 283.909 21.9834 282.604 21.9939C277.208 22.0307 272.986 26.1986 272.986 31.6017C272.97 58.9061 272.97 86.2053 272.986 113.51C272.986 118.866 277.097 123.018 282.446 123.16C283.709 123.191 284.972 123.175 286.231 123.165C292.032 123.118 296.122 118.997 296.138 113.179C296.148 109.358 296.138 105.531 296.138 101.71C296.138 97.2165 296.106 92.7227 296.154 88.2289C296.19 84.8283 298.791 82.2739 302.197 82.2581C307.835 82.2266 313.473 82.2266 319.111 82.2581C322.248 82.2792 324.712 84.5813 325.038 87.6928C325.096 88.2341 325.091 88.7807 325.091 89.3273C325.096 97.0588 325.091 104.785 325.096 112.516C325.096 113.063 325.091 113.61 325.128 114.151C325.459 119.123 329.349 122.944 334.329 123.144C335.882 123.207 337.446 123.223 338.999 123.144C342.647 122.949 345.374 121.215 347.142 118.019C348.021 116.432 348.248 114.703 348.248 112.905C348.232 99.4712 348.243 86.0266 348.243 72.5873ZM538.147 120.169C537.937 119.591 537.6 119.028 537.216 118.54C534.763 115.386 532.283 112.259 529.814 109.126C525.055 103.087 520.281 97.0588 515.543 90.9987C513.216 88.0239 513.653 84.5813 516.549 82.1951C517.522 81.3909 518.481 80.5657 519.37 79.6775C524.676 74.3638 528.072 68.0514 528.972 60.5618C530.035 51.7161 527.956 43.5747 522.697 36.3951C516.027 27.2866 506.931 22.3461 495.623 22.057C485.364 21.7942 475.098 21.9834 464.833 22.0044C462.08 22.0097 459.769 23.1134 457.916 25.1369C456.121 27.0921 455.416 29.4363 455.421 32.0695C455.447 45.5088 455.432 58.9535 455.432 72.3928V111.581C455.432 112.338 455.421 113.095 455.442 113.846C455.621 119.039 459.638 123.018 464.844 123.16C466.27 123.196 467.702 123.181 469.134 123.16C470.987 123.133 472.709 122.624 474.24 121.578C477.083 119.633 478.541 116.921 478.547 113.473C478.562 107.886 478.547 102.299 478.557 96.7119C478.557 96.0864 478.578 95.4452 478.689 94.8303C479.241 91.7398 482.068 89.6532 485.2 89.9738C487.085 90.163 488.469 91.1354 489.617 92.586C497.076 102.01 504.567 111.413 512.011 120.847C513.227 122.387 514.706 123.175 516.659 123.17C522.802 123.154 528.94 123.175 535.084 123.149C535.7 123.149 536.352 123.039 536.926 122.818C538.105 122.371 538.574 121.346 538.147 120.169ZM503.056 65.4865C500.793 68.2354 497.887 69.7018 494.281 69.6755C492.77 69.665 491.254 69.6755 489.743 69.6755C488.101 69.6755 486.464 69.6808 484.827 69.6755C481.179 69.6597 478.631 67.1895 478.568 63.5366C478.52 60.8088 478.557 58.081 478.557 55.3532C478.557 53.5924 478.547 51.8264 478.557 50.0657C478.594 46.1868 481.084 43.6745 484.953 43.6482C487.98 43.6272 491.007 43.6377 494.034 43.643C498.777 43.6535 502.214 45.8715 504.446 49.9606C507.11 54.8381 506.515 61.2766 503.056 65.4865ZM178.178 126.991C176.373 127.375 174.578 127.911 172.751 128.079C167.034 128.605 162.086 126.66 157.716 123.07C154.395 120.342 151.789 117.01 149.515 113.394C145.94 107.702 143.335 101.563 141.14 95.2402C138.75 88.3655 136.991 81.3173 135.338 74.2429C133.58 66.7217 131.885 59.1795 130.011 51.6845C128.163 44.3 125.742 37.0941 122.51 30.1826C120.12 25.0686 117.435 20.1281 113.876 15.7078C110.839 11.9288 107.28 8.75428 102.937 6.53628C97.668 3.84526 92.1564 1.82173 86.3343 0.686457C80.7858 -0.39626 75.2163 -0.559193 69.6679 0.681201C62.5507 2.26848 56.597 5.90032 51.5644 11.0984C46.4845 16.3491 42.868 22.509 40.3833 29.3417C38.7462 33.8407 37.2669 38.3976 35.5982 42.8809C33.5978 48.2419 31.1868 53.419 28.0388 58.2281C25.1383 62.6746 21.7166 66.6271 17.1157 69.4074C11.7041 72.6766 5.99249 73.7646 -0.392944 71.5256C-0.0613016 71.8409 0.049246 71.9566 0.18085 72.0617C4.51853 75.6147 9.07203 78.8418 13.9993 81.5328C18.6739 84.0872 23.5643 86.0792 28.7969 87.1619C38.0144 89.0698 46.6898 87.6875 54.8019 82.9046C59.1922 80.3187 62.9771 77.0075 66.3462 73.2075C72.6369 66.1173 77.2694 58.0179 80.8332 49.2773C80.9911 48.8884 81.1648 48.5047 81.3333 48.1158C81.6228 48.5941 81.7228 48.9988 81.7913 49.414C83.9285 62.354 86.7501 75.1416 90.514 87.7138C93.483 97.6264 97.0258 107.318 101.711 116.574C104.717 122.513 108.465 127.9 113.218 132.568C117.967 137.235 123.394 140.819 129.827 142.743C137.186 144.945 144.545 144.635 151.857 142.559C162.175 139.632 171.056 134.139 179.084 127.165C179.221 127.044 179.315 126.881 179.594 126.534C178.963 126.744 178.578 126.907 178.178 126.991Z" fill="white"/>
<path d="M-0.392944 71.5301C5.99249 73.7638 11.7041 72.6811 17.1157 69.4119C21.7166 66.6316 25.1383 62.6791 28.0441 58.2379C31.1921 53.4287 33.6083 48.2516 35.6035 42.8906C37.2722 38.4073 38.7514 33.8505 40.3886 29.3514C42.8733 22.5187 46.4898 16.3535 51.5697 11.1081C56.6022 5.91005 62.556 2.27296 69.6732 0.690936C75.2216 -0.544202 80.7858 -0.381269 86.3395 0.696192C92.1617 1.83147 97.6733 3.86025 102.943 6.54602C107.286 8.76401 110.844 11.9386 113.882 15.7176C117.435 20.1378 120.12 25.0784 122.51 30.1923C125.742 37.1039 128.169 44.3097 130.011 51.6943C131.885 59.1892 133.58 66.7262 135.338 74.2526C136.991 81.3271 138.75 88.3805 141.14 95.25C143.34 101.573 145.94 107.717 149.515 113.404C151.784 117.015 154.395 120.352 157.716 123.08C162.086 126.67 167.034 128.614 172.751 128.084C174.578 127.915 176.373 127.385 178.178 126.996C178.578 126.912 178.963 126.749 179.594 126.544C179.321 126.891 179.221 127.059 179.084 127.18C171.051 134.154 162.17 139.647 151.857 142.574C144.545 144.65 137.186 144.96 129.827 142.758C123.389 140.829 117.967 137.25 113.218 132.583C108.465 127.91 104.717 122.523 101.711 116.589C97.0311 107.333 93.483 97.6414 90.514 87.7288C86.7501 75.1566 83.9285 62.369 81.7913 49.429C81.7229 49.019 81.6228 48.6143 81.3333 48.136C81.1649 48.525 80.9911 48.9086 80.8332 49.2976C77.2694 58.0382 72.6369 66.1375 66.3462 73.2277C62.9771 77.0225 59.1869 80.339 54.8019 82.9249C46.6898 87.7078 38.0092 89.0901 28.7916 87.1822C23.5538 86.0995 18.6686 84.1075 13.994 81.5531C9.06677 78.8621 4.51326 75.6349 0.175586 72.0819C0.0545102 71.9611 -0.0613016 71.8402 -0.392944 71.5301Z" fill="url(#paint0_linear_12631_6860)"/>
<path d="M538.147 120.168C537.937 119.59 537.6 119.028 537.216 118.539C534.762 115.385 532.283 112.258 529.814 109.125C525.055 103.086 520.281 97.0579 515.543 90.9978C513.216 88.023 513.653 84.5803 516.548 82.1942C517.522 81.39 518.48 80.5648 519.37 79.6766C524.676 74.3629 528.072 68.0505 528.972 60.5608C530.035 51.7151 527.956 43.5737 522.697 36.3942C516.027 27.2857 506.931 22.3451 495.623 22.0561C485.364 21.7933 475.098 21.9825 464.833 22.0035C462.08 22.0087 459.769 23.1125 457.916 25.136C456.121 27.0912 455.416 29.4353 455.421 32.0686C455.447 45.5079 455.431 58.9525 455.431 72.3919V111.58C455.431 112.337 455.421 113.094 455.442 113.845C455.621 119.038 459.638 123.017 464.844 123.159C466.27 123.196 467.702 123.18 469.134 123.159C470.987 123.132 472.708 122.623 474.24 121.577C477.083 119.632 478.541 116.92 478.546 113.472C478.562 107.885 478.546 102.298 478.557 96.711C478.557 96.0855 478.578 95.4443 478.689 94.8294C479.241 91.7389 482.068 89.6523 485.2 89.9729C487.085 90.1621 488.469 91.1345 489.617 92.5851C497.076 102.009 504.567 111.412 512.011 120.846C513.227 122.386 514.706 123.174 516.659 123.169C522.802 123.153 528.94 123.174 535.084 123.148C535.7 123.148 536.352 123.038 536.926 122.817C538.105 122.37 538.574 121.345 538.147 120.168ZM503.056 65.4856C500.793 68.2345 497.887 69.7009 494.281 69.6746C492.77 69.6641 491.254 69.6746 489.743 69.6746C488.101 69.6746 486.464 69.6798 484.827 69.6746C481.178 69.6588 478.631 67.1885 478.567 63.5357C478.52 60.8079 478.557 58.0801 478.557 55.3522C478.557 53.5915 478.546 51.8255 478.557 50.0648C478.594 46.1859 481.084 43.6736 484.953 43.6473C487.98 43.6263 491.007 43.6368 494.034 43.6421C498.777 43.6526 502.214 45.8706 504.446 49.9597C507.11 54.8372 506.515 61.2756 503.056 65.4856Z" fill="url(#paint1_linear_12631_6860)"/>
<path d="M348.237 72.5865C348.237 86.0259 348.232 99.4705 348.242 112.91C348.242 114.702 348.021 116.437 347.137 118.024C345.368 121.219 342.641 122.949 338.993 123.148C337.44 123.232 335.877 123.211 334.324 123.148C329.344 122.949 325.454 119.128 325.122 114.156C325.085 113.609 325.091 113.062 325.091 112.516C325.091 104.784 325.091 97.058 325.085 89.3266C325.085 88.78 325.091 88.2334 325.033 87.692C324.706 84.5805 322.243 82.2784 319.105 82.2574C313.467 82.2206 307.829 82.2259 302.192 82.2521C298.78 82.2679 296.185 84.8223 296.143 88.2228C296.09 92.7166 296.127 97.2105 296.127 101.704C296.127 105.525 296.132 109.352 296.127 113.173C296.111 118.991 292.021 123.112 286.22 123.159C284.957 123.169 283.693 123.185 282.435 123.154C277.081 123.017 272.975 118.86 272.97 113.504C272.954 86.1993 272.954 58.8949 272.97 31.5957C272.975 26.1926 277.192 22.0247 282.588 21.9879C283.893 21.9774 285.199 21.9774 286.499 21.9879C291.879 22.0247 296.08 26.1979 296.117 31.6115C296.154 37.0724 296.127 42.5332 296.127 47.9941C296.127 49.8863 296.117 51.7731 296.132 53.6653C296.164 57.4232 298.57 59.9145 302.344 59.9986C305.371 60.0669 308.403 60.0144 311.43 60.0196C313.831 60.0196 316.226 60.0196 318.626 60.0196C320.469 60.0196 322.106 59.4888 323.411 58.1275C324.612 56.8714 325.096 55.3524 325.091 53.6442C325.085 50.0755 325.091 46.5014 325.091 42.9327C325.091 39.1957 325.064 35.4535 325.096 31.7166C325.133 27.2701 327.781 23.6645 331.866 22.4031C333.787 21.8092 339.572 21.8144 341.494 22.4136C345.31 23.6015 347.99 27.0178 348.206 30.9965C348.237 31.6272 348.232 32.2579 348.232 32.8886C348.242 46.123 348.237 59.3574 348.237 72.5865Z" fill="url(#paint2_linear_12631_6860)"/>
<path d="M439.477 63.4469C439.477 72.8181 439.477 82.1842 439.477 91.5554C439.477 95.5289 439.019 99.4393 437.734 103.218C434.929 111.47 429.407 117.299 421.61 121.041C414.456 124.473 406.844 125.477 398.995 125.109C392.615 124.815 386.482 123.448 380.818 120.426C371.49 115.444 366.01 107.728 364.573 97.2266C364.331 95.4448 364.178 93.6315 364.178 91.8288C364.152 71.9562 364.162 52.0836 364.157 32.211C364.157 29.8721 364.668 27.7067 366.115 25.8303C368.032 23.3443 370.569 22.0461 373.717 22.004C375.149 21.983 376.581 21.9777 378.007 22.004C382.898 22.0881 387.009 26.03 387.298 30.9075C387.34 31.5803 387.33 32.253 387.33 32.9258C387.33 51.8313 387.325 70.7368 387.351 89.6476C387.351 91.0667 387.493 92.5068 387.767 93.8943C388.588 98.0465 391.178 100.664 395.2 101.799C399.585 103.034 404.028 103.04 408.413 101.804C412.945 100.533 415.456 97.4263 416.093 92.8064C416.246 91.6868 416.304 90.5463 416.304 89.4163C416.315 70.3847 416.32 51.353 416.304 32.3161C416.304 30.5238 416.504 28.7894 417.378 27.1969C419.183 23.9014 421.968 22.1407 425.737 22.0093C427.164 21.9567 428.601 21.983 430.028 22.004C434.865 22.0671 438.887 25.7462 439.382 30.5554C439.451 31.2229 439.461 31.8956 439.461 32.5684C439.482 42.8595 439.477 53.1505 439.477 63.4469Z" fill="url(#paint3_linear_12631_6860)"/>
<path d="M239.649 82.2207C239.649 92.5118 239.639 102.803 239.655 113.094C239.66 115.123 239.255 117.015 238.133 118.723C236.296 121.519 233.68 123.001 230.342 123.154C228.832 123.222 227.31 123.212 225.799 123.154C220.851 122.975 216.982 119.28 216.555 114.35C216.498 113.683 216.498 113.01 216.498 112.337C216.492 92.0913 216.498 71.8456 216.498 51.5998C216.498 51.1793 216.503 50.7589 216.492 50.3384C216.403 46.7854 213.876 44.2678 210.302 44.2153C207.906 44.1785 205.506 44.1417 203.111 44.2205C198.094 44.394 193.293 40.1945 193.346 34.6285C193.356 33.5353 193.325 32.442 193.356 31.3541C193.509 26.0666 197.652 22.0091 202.958 22.0038C215.455 21.988 227.947 21.9986 240.444 21.9986C244.608 21.9986 248.772 21.9933 252.941 21.9986C258.664 22.0091 262.801 26.1455 262.822 31.8639C262.828 32.7889 262.833 33.714 262.822 34.6338C262.754 40.6255 257.716 44.3624 253.163 44.2205C250.725 44.1469 248.283 44.1942 245.845 44.2153C243.734 44.2363 242.018 45.0667 240.765 46.7959C239.944 47.9312 239.649 49.2189 239.655 50.5959C239.66 53.9545 239.655 57.3183 239.655 60.6768C239.649 67.8563 239.649 75.0412 239.649 82.2207Z" fill="url(#paint4_linear_12631_6860)"/>
<path d="M160.056 72.5974C160.056 59.0267 160.067 45.4612 160.046 31.8904C160.04 29.2414 160.835 26.9288 162.651 25.0052C164.504 23.0447 166.794 22.0356 169.5 21.9988C170.806 21.983 172.111 21.9883 173.411 21.9935C178.918 22.0198 183.071 26.0879 183.197 31.5908C183.203 31.8431 183.197 32.0954 183.197 32.3477C183.197 59.1896 183.197 86.0368 183.203 112.879C183.203 114.85 182.882 116.731 181.839 118.434C180.013 121.42 177.328 122.996 173.832 123.154C172.448 123.217 171.058 123.186 169.668 123.165C164.152 123.075 160.056 118.96 160.051 113.431C160.046 99.823 160.056 86.2102 160.056 72.5974Z" fill="url(#paint5_linear_12631_6860)"/>
<path d="M57.4513 144.819C44.554 144.803 34.1731 134.407 34.2152 121.551C34.2573 108.758 44.6488 98.3935 57.4513 98.3672C70.3327 98.3462 80.8189 108.853 80.761 121.735C80.7031 134.523 70.2906 144.835 57.4513 144.819Z" fill="url(#paint6_linear_12631_6860)"/>
<path d="M179.594 126.539C179.42 126.754 179.32 126.901 179.236 127.012C179.199 127.054 179.168 127.091 179.136 127.122C179.12 127.138 179.099 127.154 179.084 127.17C171.056 134.144 162.175 139.637 151.857 142.564C144.545 144.64 137.191 144.95 129.827 142.748C123.394 140.819 117.967 137.24 113.218 132.567C108.465 127.9 104.717 122.513 101.711 116.574C99.3735 111.948 97.3152 107.208 95.4727 102.388C95.2359 101.768 94.999 101.148 94.7726 100.522C94.4989 99.781 94.2304 99.0452 93.9672 98.3041C93.6408 97.3895 93.325 96.475 93.0144 95.5605C92.5511 94.1834 92.0984 92.8064 91.6562 91.4188C91.2667 90.1889 90.8876 88.9538 90.5139 87.7134C86.7816 75.2464 83.9811 62.5744 81.8543 49.7447C81.8333 49.6344 81.8122 49.524 81.7964 49.4136C81.7438 49.0983 81.6701 48.7829 81.5069 48.436C77.4324 28.2638 71.3681 15.5235 62.419 12.8956C54.0332 10.4305 45.1841 19.97 44.1102 21.1789C44.8314 19.8754 45.6158 18.614 46.4528 17.3788C46.9581 16.643 47.4846 15.9177 48.0268 15.2082C49.1217 13.7838 50.3009 12.412 51.5696 11.1033C56.6021 5.9052 62.5559 2.26811 69.673 0.686084C75.2215 -0.554311 80.7857 -0.391377 86.3341 0.69134C92.1563 1.82662 97.6679 3.8554 102.937 6.54117C107.28 8.75916 110.839 11.9337 113.876 15.7127C117.435 20.1329 120.114 25.0735 122.51 30.1822C122.91 31.0442 123.299 31.9114 123.678 32.7787C126.337 38.8965 128.395 45.2194 130.011 51.6842C130.479 53.5553 130.937 55.4369 131.385 57.3132C131.832 59.1896 132.275 61.0712 132.717 62.9528C133.596 66.7161 134.459 70.4793 135.338 74.2425C136.991 81.3222 138.749 88.3704 141.139 95.2399C143.34 101.563 145.94 107.707 149.515 113.399C151.789 117.01 154.395 120.342 157.716 123.07C162.086 126.66 167.034 128.604 172.751 128.079C174.577 127.911 176.373 127.375 178.178 126.991C178.578 126.907 178.962 126.744 179.594 126.539Z" fill="url(#paint7_linear_12631_6860)"/>
</g>
<defs>
<linearGradient id="paint0_linear_12631_6860" x1="55.0093" y1="182.856" x2="123.396" y2="16.6253" gradientUnits="userSpaceOnUse">
<stop offset="0.3941" stop-color="#4FC3F2"/>
<stop offset="0.4707" stop-color="#46B6E0"/>
<stop offset="0.6239" stop-color="#3095B2"/>
<stop offset="0.8378" stop-color="#0D5F68"/>
<stop offset="0.8871" stop-color="#045256"/>
</linearGradient>
<linearGradient id="paint1_linear_12631_6860" x1="496.859" y1="53.2139" x2="496.859" y2="135.97" gradientUnits="userSpaceOnUse">
<stop stop-color="#4FC3F2"/>
<stop offset="0.1331" stop-color="#4CBFED"/>
<stop offset="0.2992" stop-color="#45B4DD"/>
<stop offset="0.4826" stop-color="#39A2C4"/>
<stop offset="0.6787" stop-color="#2888A0"/>
<stop offset="0.8826" stop-color="#126773"/>
<stop offset="1" stop-color="#045256"/>
</linearGradient>
<linearGradient id="paint2_linear_12631_6860" x1="310.607" y1="53.7939" x2="310.607" y2="128.955" gradientUnits="userSpaceOnUse">
<stop stop-color="#4FC3F2"/>
<stop offset="0.1331" stop-color="#4CBFED"/>
<stop offset="0.2992" stop-color="#45B4DD"/>
<stop offset="0.4826" stop-color="#39A2C4"/>
<stop offset="0.6787" stop-color="#2888A0"/>
<stop offset="0.8826" stop-color="#126773"/>
<stop offset="1" stop-color="#045256"/>
</linearGradient>
<linearGradient id="paint3_linear_12631_6860" x1="401.821" y1="56.734" x2="401.821" y2="131.935" gradientUnits="userSpaceOnUse">
<stop stop-color="#4FC3F2"/>
<stop offset="0.1331" stop-color="#4CBFED"/>
<stop offset="0.2992" stop-color="#45B4DD"/>
<stop offset="0.4826" stop-color="#39A2C4"/>
<stop offset="0.6787" stop-color="#2888A0"/>
<stop offset="0.8826" stop-color="#126773"/>
<stop offset="1" stop-color="#045256"/>
</linearGradient>
<linearGradient id="paint4_linear_12631_6860" x1="227.828" y1="53.8782" x2="226.872" y2="130.303" gradientUnits="userSpaceOnUse">
<stop stop-color="#4FC3F2"/>
<stop offset="0.1331" stop-color="#4CBFED"/>
<stop offset="0.2992" stop-color="#45B4DD"/>
<stop offset="0.4826" stop-color="#39A2C4"/>
<stop offset="0.6787" stop-color="#2888A0"/>
<stop offset="0.8826" stop-color="#126773"/>
<stop offset="1" stop-color="#045256"/>
</linearGradient>
<linearGradient id="paint5_linear_12631_6860" x1="171.629" y1="5.76287" x2="171.629" y2="143.494" gradientUnits="userSpaceOnUse">
<stop stop-color="#4FC3F2"/>
<stop offset="0.1331" stop-color="#4CBFED"/>
<stop offset="0.2992" stop-color="#45B4DD"/>
<stop offset="0.4826" stop-color="#39A2C4"/>
<stop offset="0.6787" stop-color="#2888A0"/>
<stop offset="0.8826" stop-color="#126773"/>
<stop offset="1" stop-color="#045256"/>
</linearGradient>
<linearGradient id="paint6_linear_12631_6860" x1="34.2122" y1="121.593" x2="80.7576" y2="121.593" gradientUnits="userSpaceOnUse">
<stop stop-color="#4FC3F2"/>
<stop offset="0.1331" stop-color="#4CBFED"/>
<stop offset="0.2992" stop-color="#45B4DD"/>
<stop offset="0.4826" stop-color="#39A2C4"/>
<stop offset="0.6787" stop-color="#2888A0"/>
<stop offset="0.8826" stop-color="#126773"/>
<stop offset="1" stop-color="#045256"/>
</linearGradient>
<linearGradient id="paint7_linear_12631_6860" x1="60.4853" y1="95.1518" x2="149.143" y2="53.516" gradientUnits="userSpaceOnUse">
<stop offset="0.2297" stop-color="#4FC3F2"/>
<stop offset="0.3322" stop-color="#4CBFED"/>
<stop offset="0.4601" stop-color="#45B4DD"/>
<stop offset="0.6014" stop-color="#39A2C4"/>
<stop offset="0.7525" stop-color="#2888A0"/>
<stop offset="0.9095" stop-color="#126773"/>
<stop offset="1" stop-color="#045256"/>
</linearGradient>
<clipPath id="clip0_12631_6860">
<rect width="559" height="145" fill="white"/>
</clipPath>
</defs>
</svg>
